<?xml version="1.0" standalone="no"?>
<!DOCTYPE svg PUBLIC "-//W3C//DTD SVG 20010904//EN"
 "http://www.w3.org/TR/2001/REC-SVG-20010904/DTD/svg10.dtd">
<svg version="1.0" xmlns="http://www.w3.org/2000/svg"
 width="1080.000000pt" height="1080.000000pt" viewBox="0 0 1080.000000 1080.000000"
 preserveAspectRatio="xMidYMid meet">
<metadata>
Created by potrace 1.14, written by Peter Selinger 2001-2017
</metadata>
<g transform="translate(0.000000,1080.000000) scale(0.100000,-0.100000)"
fill="#000000" stroke="none">
<path d="M4325 8146 c-27 -7 -90 -30 -140 -50 -129 -53 -158 -58 -375 -65
l-196 -6 -59 -35 c-83 -49 -211 -181 -335 -345 -63 -85 -155 -189 -231 -265
-143 -141 -153 -160 -191 -344 -11 -54 -31 -128 -45 -165 -36 -91 -35 -201 0
-329 37 -134 58 -170 161 -280 51 -54 104 -123 120 -153 35 -70 79 -117 130
-140 56 -24 372 -63 455 -55 42 4 90 17 140 40 151 70 203 68 322 -11 l71 -46
112 -7 c62 -4 117 -9 122 -12 5 -3 25 15 44 41 203 271 517 571 810 774 237
165 505 306 735 387 28 10 58 21 68 25 43 18 10 -16 -72 -73 -49 -33 -95 -67
-102 -74 -8 -7 -34 -29 -59 -48 -56 -44 -61 -48 -195 -161 -299 -254 -611
-578 -827 -861 -77 -100 -228 -323 -228 -336 0 -15 -28 -34 -34 -24 -3 5 -12
55 -22 113 -9 57 -23 120 -30 139 -17 41 -52 80 -71 80 -33 0 -230 -354 -287
-515 -63 -179 -78 -266 -80 -450 0 -148 2 -181 23 -259 47 -180 152 -357 289
-491 81 -78 103 -89 65 -34 -60 89 -121 245 -142 363 -6 33 -11 115 -11 182 0
148 21 268 79 444 41 124 174 410 192 410 4 0 16 -15 25 -32 15 -30 70 -104
102 -137 38 -39 98 -130 115 -175 35 -90 27 -170 -34 -348 -42 -124 -53 -169
-57 -238 -4 -79 -2 -91 25 -150 17 -36 48 -94 69 -130 73 -119 85 -159 93
-306 9 -148 11 -154 105 -259 l45 -50 50 105 c72 152 100 271 108 455 15 372
-89 766 -325 1237 -61 122 -91 192 -85 201 25 41 155 216 171 231 19 17 22 14
82 -81 169 -268 326 -653 388 -953 46 -219 53 -509 17 -689 -45 -226 -169
-462 -306 -586 l-42 -37 23 -57 c29 -70 63 -117 100 -136 37 -19 138 -19 208
-1 29 8 83 18 120 22 122 12 259 78 333 160 19 22 50 71 68 110 81 170 97 197
151 246 30 28 73 68 96 89 51 48 64 90 64 212 0 53 5 108 11 123 5 16 57 73
114 129 124 119 146 160 153 280 3 60 -3 115 -23 220 -78 406 -50 491 221 671
122 82 159 120 258 261 31 46 63 88 70 95 37 39 99 133 126 191 22 50 31 83
31 127 2 115 -33 131 -190 85 -161 -47 -217 -29 -288 95 -35 61 -66 93 -143
152 -107 81 -145 141 -231 363 -21 55 -62 138 -89 184 -80 131 -82 140 -75
261 8 126 -5 171 -62 210 -40 27 -92 31 -224 15 -97 -11 -215 22 -337 94 -82
48 -166 75 -213 67 -53 -9 -83 -25 -144 -82 -53 -49 -100 -74 -138 -74 -23 0
-105 47 -135 77 -26 25 -73 41 -142 48 -115 11 -151 24 -166 61 -8 19 -13 62
-12 96 2 87 -27 142 -88 170 -58 25 -136 31 -199 14z m610 -758 c166 -83 221
-115 208 -120 -10 -4 -51 -17 -90 -29 l-73 -21 0 -69 c0 -38 -2 -69 -5 -69 -3
0 -29 13 -58 30 -57 32 -159 60 -222 60 -57 0 -168 -33 -215 -64 -22 -14 -44
-26 -50 -26 -6 0 -10 29 -10 69 0 58 -3 71 -17 75 -127 36 -164 48 -161 52 10
9 444 223 455 223 7 1 114 -50 238 -111z m-99 -401 c166 -84 192 -291 52 -411
-83 -71 -221 -85 -323 -33 -260 132 -146 489 150 474 50 -3 84 -11 121 -30z
m-728 -375 c18 -14 46 -32 61 -41 39 -21 145 -92 151 -100 3 -4 20 -18 39 -31
19 -13 29 -26 23 -28 -6 -2 -20 6 -32 18 -21 21 -40 19 -40 -3 0 -8 3 -8 9 1
7 11 9 11 14 -2 3 -8 1 -17 -6 -19 -7 -2 8 -4 33 -2 34 1 51 -4 70 -20 14 -13
46 -41 71 -64 25 -22 51 -41 58 -41 6 0 11 -4 11 -10 0 -5 -4 -10 -9 -10 -4 0
-20 -17 -34 -39 -14 -21 -37 -51 -51 -67 -37 -42 -40 -46 -61 -81 l-18 -31
-26 23 c-69 62 -109 95 -114 95 -2 0 -23 17 -45 38 -52 47 -60 54 -99 77 -38
22 -44 40 -11 29 21 -6 21 -6 5 10 -9 10 -17 24 -17 32 0 8 -12 19 -26 24 -14
6 -22 14 -19 20 8 12 -25 13 -44 1 -17 -11 -6 -32 13 -25 7 3 20 -1 27 -8 8
-8 23 -17 33 -21 16 -6 17 -10 6 -20 -10 -9 -13 -9 -17 1 -3 6 -9 12 -14 12
-5 0 -39 19 -76 43 -38 24 -96 56 -130 72 -34 17 -62 33 -63 38 0 4 12 25 26
47 23 34 29 38 46 29 31 -17 68 29 48 61 -9 14 -15 6 -24 -33 -6 -24 -9 -27
-22 -16 -12 10 -12 14 -1 28 8 9 27 39 42 67 l28 51 76 -40 c42 -22 91 -52
109 -65z"/>
<path d="M3920 6690 c0 -5 5 -10 10 -10 6 0 10 5 10 10 0 6 -4 10 -10 10 -5 0
-10 -4 -10 -10z"/>
<path d="M3954 6669 c-3 -5 6 -9 20 -9 31 0 34 6 6 13 -11 3 -23 1 -26 -4z"/>
<path d="M3907 6653 c-3 -5 2 -15 11 -23 14 -13 15 -12 9 2 -3 9 -1 19 6 22 7
2 5 5 -5 5 -9 1 -19 -2 -21 -6z"/>
<path d="M4001 6633 c1 -10 1 -29 0 -43 -2 -24 -2 -24 -14 -5 -17 27 -51 30
-44 3 3 -12 -2 -27 -14 -39 -17 -17 -16 -23 4 -20 4 0 7 -5 7 -11 0 -7 11 0
24 16 l23 30 5 -26 c3 -18 1 -25 -8 -21 -6 2 -15 0 -19 -6 -3 -6 -2 -11 3 -11
5 0 13 -10 17 -22 6 -21 7 -21 16 10 6 20 14 30 21 26 7 -5 9 2 6 20 -4 18 -1
26 9 26 8 0 11 5 8 11 -4 6 -13 8 -21 5 -8 -3 -14 -1 -14 4 0 6 7 10 16 10 11
0 14 5 10 16 -3 9 -6 22 -6 30 0 8 -7 14 -16 14 -9 0 -14 -8 -13 -17z"/>
<path d="M4044 6600 c0 -10 3 -18 6 -18 21 2 30 -4 28 -18 -2 -10 4 -19 12
-21 13 -4 13 -3 0 6 -8 6 -11 11 -6 11 5 0 18 -7 27 -16 17 -15 18 -15 14 6
-5 28 -25 52 -39 47 -6 -3 -18 2 -26 9 -13 11 -16 10 -16 -6z"/>
<path d="M4140 6550 c0 -13 11 -13 30 0 12 8 11 10 -7 10 -13 0 -23 -4 -23
-10z"/>
<path d="M3831 6541 c-1 -8 -8 -23 -18 -33 -9 -10 -14 -21 -10 -24 9 -9 40 44
34 58 -4 10 -6 9 -6 -1z"/>
<path d="M4170 6532 c0 -15 38 -44 49 -37 18 10 13 21 -14 33 -31 14 -35 15
-35 4z"/>
<path d="M4090 6510 c10 -6 11 -10 3 -10 -7 0 -13 -4 -13 -10 0 -5 3 -9 8 -9
24 4 34 -3 29 -21 -7 -26 30 -28 49 -2 20 26 17 35 -10 28 -16 -4 -28 0 -37
12 -13 16 -13 16 6 2 19 -14 19 -14 6 3 -7 9 -23 17 -35 17 -17 0 -18 -2 -6
-10z"/>
<path d="M4243 6491 c1 -22 12 -28 21 -12 3 5 -1 14 -9 21 -11 9 -14 8 -12 -9z"/>
<path d="M3825 6480 c-3 -5 1 -10 10 -10 9 0 13 5 10 10 -3 6 -8 10 -10 10 -2
0 -7 -4 -10 -10z"/>
<path d="M3878 6473 c-22 -6 -24 -23 -2 -23 9 0 27 -9 41 -20 14 -11 31 -20
39 -20 7 0 14 -5 16 -11 2 -5 11 -7 21 -3 16 6 16 7 1 19 -14 9 -14 14 -4 20
9 6 11 4 5 -5 -6 -9 1 -12 27 -8 36 4 69 -15 45 -26 -7 -3 -3 -4 9 -1 23 6 62
-5 63 -17 1 -5 1 -17 1 -28 0 -26 17 -26 25 1 5 14 0 26 -16 40 -12 10 -18 19
-13 19 5 0 0 6 -11 13 -26 18 -113 39 -126 31 -5 -3 -17 0 -26 8 -15 11 -16
11 -10 -4 5 -14 2 -16 -16 -9 -12 4 -28 6 -34 4 -7 -3 -13 0 -13 5 0 6 6 13
13 15 15 7 -11 7 -35 0z"/>
<path d="M4400 6373 c0 -13 14 -27 37 -40 34 -19 39 -16 12 7 -13 11 -30 24
-36 30 -7 6 -13 7 -13 3z"/>
<path d="M4317 6350 c3 -12 0 -20 -8 -20 -29 0 5 -14 37 -16 23 0 34 4 34 13
0 8 -4 11 -10 8 -5 -3 -17 3 -27 15 -22 25 -33 26 -26 0z"/>
<path d="M4480 6309 c0 -5 5 -7 10 -4 6 3 10 8 10 11 0 2 -4 4 -10 4 -5 0 -10
-5 -10 -11z"/>
<path d="M4140 6295 c-11 -13 -10 -18 6 -30 10 -8 24 -14 29 -14 6 0 4 3 -3 6
-6 2 -10 9 -7 14 4 5 2 16 -3 25 -8 14 -10 14 -22 -1z"/>
<path d="M4225 6281 c-3 -5 -1 -12 5 -16 5 -3 10 -4 10 0 0 3 9 1 20 -5 11 -6
20 -20 20 -31 0 -18 25 -37 36 -27 2 3 6 19 8 35 4 28 1 31 -34 42 -45 13 -57
14 -65 2z"/>
<path d="M4493 6275 c4 -8 2 -17 -3 -20 -5 -3 -11 3 -13 12 -4 16 -5 16 -6 1
0 -9 4 -20 9 -23 6 -3 10 -11 10 -16 0 -6 -4 -7 -10 -4 -5 3 -10 1 -10 -4 0
-6 6 -11 14 -11 17 0 38 24 29 33 -3 4 -1 13 5 20 13 15 6 27 -16 27 -8 0 -12
-6 -9 -15z"/>
<path d="M4200 6250 c0 -6 20 -30 45 -53 67 -63 75 -69 75 -57 0 5 8 10 18 10
14 0 15 2 2 10 -8 5 -17 5 -20 0 -3 -5 -12 -5 -20 0 -8 6 -11 10 -7 10 5 0 -7
14 -25 30 -18 17 -33 36 -33 43 0 6 -8 13 -17 15 -10 2 -18 -2 -18 -8z"/>
<path d="M4396 6161 c5 -11 3 -13 -10 -8 -13 5 -15 3 -7 -12 13 -23 41 -35 41
-18 0 7 -7 22 -16 33 -8 10 -12 13 -8 5z"/>
<path d="M4430 6149 c0 -5 5 -7 10 -4 6 3 10 8 10 11 0 2 -4 4 -10 4 -5 0 -10
-5 -10 -11z"/>
<path d="M4351 6107 c13 -13 28 -20 33 -16 13 12 -13 39 -37 39 -19 0 -19 -1
4 -23z"/>
<path d="M6999 7574 c-16 -20 -1 -48 29 -52 16 -3 23 3 28 23 10 41 -30 61
-57 29z"/>
<path d="M7082 7492 c-16 -11 19 -44 51 -49 27 -4 49 -31 45 -57 -5 -33 -22
-28 -73 19 -28 24 -56 44 -62 45 -17 0 -43 -53 -43 -87 0 -45 34 -90 78 -104
33 -9 45 -9 76 6 71 34 97 96 67 158 -30 61 -97 95 -139 69z m20 -139 c36 -35
35 -45 -3 -41 -35 3 -56 26 -46 52 9 22 16 20 49 -11z"/>
<path d="M7235 7289 c-57 -55 -65 -67 -65 -100 0 -29 6 -42 26 -58 15 -12 35
-21 44 -21 13 0 17 -6 13 -18 -2 -10 4 -25 14 -34 17 -15 23 -11 103 63 l85
79 -22 21 -21 22 -58 -52 c-66 -58 -98 -65 -116 -26 -11 24 -7 30 48 86 48 49
57 62 48 76 -19 31 -33 25 -99 -38z"/>
<path d="M7387 7088 l-87 -72 21 -22 22 -23 46 37 c25 20 51 42 57 48 7 6 26
22 43 37 30 25 31 27 14 47 -10 11 -20 20 -23 20 -3 0 -45 -32 -93 -72z"/>
<path d="M7498 7053 c-10 -2 -18 -8 -18 -11 1 -17 29 -42 46 -42 26 0 40 -11
48 -38 6 -17 0 -29 -23 -52 -52 -53 -122 -31 -106 32 4 13 -1 31 -10 43 -15
20 -15 20 -30 1 -38 -49 2 -144 66 -160 141 -35 222 158 93 219 -33 15 -37 16
-66 8z"/>
<path d="M7242 6953 c2 -22 8 -28 28 -28 20 0 25 5 25 25 0 20 -6 26 -28 28
-26 3 -28 1 -25 -25z"/>
<path d="M7600 6829 c-41 -28 -82 -54 -90 -58 -12 -8 -12 -14 -2 -36 15 -32
15 -32 126 40 83 54 86 58 73 78 -7 11 -18 22 -23 23 -5 1 -43 -20 -84 -47z"/>
<path d="M7705 6772 c-16 -10 -72 -41 -124 -67 -51 -27 -95 -55 -98 -61 -2 -7
0 -22 7 -33 l11 -21 45 25 c24 14 46 25 48 25 2 0 3 -18 2 -39 -2 -74 71 -103
154 -61 48 25 70 55 70 98 0 34 -36 82 -62 82 -10 0 -9 3 1 9 12 8 13 14 3 35
-14 31 -18 31 -57 8z m39 -85 c30 -22 17 -69 -26 -92 -30 -16 -40 -17 -62 -7
-47 21 -29 76 34 101 33 13 33 13 54 -2z"/>
<path d="M7424 6715 c-10 -25 4 -45 30 -45 28 0 37 17 24 43 -11 21 -46 23
-54 2z"/>
<path d="M7814 6518 c3 -13 6 -26 6 -29 0 -4 9 -9 20 -12 35 -9 38 -83 3 -94
-6 -2 -23 28 -39 67 -16 41 -33 70 -42 70 -8 0 -29 -15 -48 -34 -38 -38 -44
-77 -19 -126 16 -32 61 -60 95 -60 31 0 84 25 109 51 42 45 20 144 -39 174
-41 21 -53 19 -46 -7z m-39 -98 c22 -42 20 -62 -7 -58 -29 4 -47 50 -28 72 17
21 17 21 35 -14z"/>
<path d="M7870 6288 c-52 -15 -116 -33 -142 -39 -26 -6 -50 -15 -53 -19 -3 -5
1 -24 9 -43 l14 -34 106 -12 c59 -7 106 -17 104 -21 -2 -4 -40 -38 -85 -74
-80 -64 -81 -66 -73 -97 5 -18 12 -34 15 -37 6 -6 275 67 288 78 4 4 3 18 -2
32 l-10 26 -87 -25 c-47 -13 -88 -22 -90 -20 -2 2 32 32 76 66 44 34 80 65 80
69 -1 26 -25 35 -114 45 -53 6 -96 13 -96 17 0 4 38 17 85 29 47 13 87 26 89
29 2 4 -1 19 -7 33 l-12 26 -95 -29z"/>
<path d="M7915 5830 c-60 -10 -116 -19 -122 -19 -8 -1 -13 -14 -13 -31 0 -24
4 -30 21 -30 28 0 282 40 287 45 3 2 2 16 -2 30 -8 30 -16 30 -171 5z"/>
<path d="M7985 5740 c-75 -8 -89 -15 -104 -46 -28 -61 6 -153 57 -154 17 0 15
57 -3 64 -9 3 -15 18 -15 36 0 27 3 31 22 28 18 -2 24 -12 31 -48 5 -25 16
-53 24 -62 20 -22 76 -23 97 -2 20 20 21 83 0 112 -8 12 -10 22 -5 22 6 0 11
14 11 30 0 33 1 33 -115 20z m77 -84 c14 -31 4 -56 -21 -56 -12 0 -23 11 -30
31 -15 45 -14 49 14 49 17 0 29 -8 37 -24z"/>
<path d="M7915 5496 c-51 -51 -44 -134 14 -173 54 -37 114 -29 169 20 17 16
22 31 22 70 0 41 -5 53 -30 79 -17 16 -35 28 -42 26 -19 -7 -17 -52 3 -66 23
-16 25 -55 4 -72 -9 -7 -33 -13 -55 -13 -22 0 -46 6 -55 13 -21 18 -19 58 5
72 24 16 28 68 5 68 -9 0 -27 -11 -40 -24z"/>
<path d="M2674 5466 c-14 -37 0 -51 54 -54 l52 -3 0 -45 c0 -80 30 -113 101
-114 82 0 114 50 107 170 l-3 55 -153 3 c-127 2 -153 0 -158 -12z m258 -91
c-7 -86 -102 -87 -102 -1 0 43 6 47 60 44 l45 -3 -3 -40z"/>
<path d="M7786 5265 c-9 -25 4 -45 30 -45 20 0 24 5 24 30 0 25 -4 30 -24 30
-13 0 -26 -7 -30 -15z"/>
<path d="M7880 5245 l0 -32 77 -7 c42 -3 93 -6 115 -6 35 0 38 2 38 29 0 32 5
31 -177 44 l-53 4 0 -32z"/>
<path d="M2705 5205 c-14 -13 -25 -33 -25 -44 0 -27 21 -71 34 -71 6 0 5 -5
-2 -12 -7 -7 -12 -25 -12 -41 0 -26 3 -28 28 -23 15 2 54 8 87 11 76 9 91 17
105 59 15 46 -2 108 -35 130 -13 9 -27 16 -30 16 -12 0 -4 -59 10 -70 19 -16
19 -56 1 -63 -19 -8 -32 9 -45 60 -19 71 -72 93 -116 48z m81 -71 c12 -28 13
-39 4 -44 -21 -13 -50 1 -56 26 -15 60 29 74 52 18z"/>
<path d="M7889 5151 c-33 -33 -39 -80 -13 -105 14 -15 14 -16 -5 -16 -17 0
-21 -6 -21 -29 0 -34 -4 -32 168 -56 154 -21 152 -21 152 14 0 28 -2 30 -55
36 -30 4 -55 9 -55 12 0 2 9 13 20 25 37 40 19 107 -35 133 -18 8 -54 15 -80
15 -38 0 -52 -5 -76 -29z m143 -58 c46 -41 -12 -94 -78 -73 -19 7 -38 18 -41
26 -9 23 6 62 25 67 27 8 74 -2 94 -20z"/>
<path d="M2808 4987 c-99 -21 -112 -30 -89 -65 7 -11 21 -12 84 -1 84 14 107
6 107 -37 0 -29 -17 -38 -103 -54 -67 -12 -68 -13 -62 -39 4 -14 8 -28 11 -30
2 -2 41 3 86 12 64 13 88 23 106 42 29 34 28 70 -2 100 -19 19 -22 26 -11 32
19 11 8 63 -14 62 -9 -1 -60 -10 -113 -22z"/>
<path d="M7859 4907 c-27 -18 -36 -32 -43 -70 -11 -58 1 -89 46 -117 60 -37
140 -23 171 30 35 59 17 130 -42 160 -52 26 -90 25 -132 -3z m119 -63 c27 -18
29 -59 3 -74 -69 -37 -158 36 -101 82 26 21 57 18 98 -8z"/>
<path d="M7785 4720 c-4 -6 -4 -22 -1 -35 4 -14 1 -25 -8 -28 -7 -3 -15 -16
-18 -30 -4 -22 1 -26 92 -55 114 -38 126 -39 134 -10 7 29 4 31 -77 58 -69 22
-80 35 -74 85 2 22 -36 34 -48 15z"/>
<path d="M2790 4628 c1 -43 13 -57 52 -60 38 -3 42 -6 59 -50 l18 -47 -30 -29
c-28 -26 -30 -32 -19 -53 7 -13 14 -26 16 -27 1 -2 59 42 129 99 83 68 124
107 120 117 -3 7 -8 25 -11 38 l-6 24 -164 0 c-125 0 -164 -3 -164 -12z m250
-69 c-14 -11 -37 -28 -51 -39 l-26 -19 -12 25 c-22 48 -16 54 52 54 l62 0 -25
-21z"/>
<path d="M7664 4603 c-18 -44 -74 -192 -74 -198 0 -3 9 -9 20 -15 19 -10 23
-6 41 34 l20 45 47 -18 c26 -10 76 -31 111 -45 36 -14 70 -26 77 -26 10 0 30
48 22 55 -2 1 -54 22 -116 46 -123 48 -118 41 -96 116 4 15 0 24 -15 32 -18
10 -22 7 -37 -26z"/>
<path d="M6726 4556 c-18 -18 -37 -52 -44 -74 -18 -60 -52 -82 -124 -82 -55 0
-63 -3 -94 -34 -28 -28 -34 -42 -34 -75 0 -23 9 -59 20 -81 28 -55 25 -78 -17
-146 -37 -58 -37 -60 -41 -182 l-4 -122 32 -30 c25 -24 41 -30 75 -30 78 0
115 51 161 222 15 51 33 106 42 123 19 38 83 136 100 154 60 63 90 268 51 343
-31 58 -77 63 -123 14z"/>
<path d="M3073 4429 c-6 -6 -9 -17 -7 -24 3 -7 -26 -26 -76 -48 -81 -37 -88
-44 -70 -77 10 -18 14 -18 86 15 84 39 104 42 104 20 0 -16 9 -19 34 -9 11 4
14 13 10 29 -8 31 15 43 35 19 19 -23 51 -20 51 5 0 10 -10 31 -22 46 -19 24
-26 27 -65 21 -25 -3 -43 -2 -43 4 0 13 -23 13 -37 -1z"/>
<path d="M3063 4239 c-51 -27 -93 -53 -93 -57 0 -5 6 -17 14 -28 14 -19 16
-18 78 14 75 39 92 40 114 8 10 -16 22 -23 32 -19 23 7 -28 -29 -105 -74 -60
-35 -61 -37 -46 -60 8 -12 19 -23 24 -23 10 0 159 88 178 105 11 11 8 21 -15
60 -15 26 -36 50 -46 53 -19 5 -25 22 -8 22 6 0 5 10 -2 25 -6 14 -16 25 -22
25 -6 0 -53 -23 -103 -51z"/>
<path d="M7504 4242 c-18 -12 -34 -49 -34 -80 0 -36 29 -63 77 -71 31 -5 38
-11 45 -38 26 -99 161 -72 175 35 3 23 9 42 14 42 13 0 39 31 39 47 0 11 -6
14 -26 9 -20 -5 -30 -1 -46 19 -32 41 -55 49 -69 23 -9 -18 -9 -24 6 -34 24
-18 10 -34 -31 -34 -29 0 -34 3 -34 23 0 49 -75 87 -116 59z m71 -62 c7 -23
-1 -40 -19 -40 -20 0 -39 27 -32 45 8 22 44 18 51 -5z m145 -76 c0 -49 -58
-75 -80 -35 -11 22 -6 28 38 41 39 12 42 12 42 -6z"/>
<path d="M3290 4195 c-14 -17 -7 -43 15 -51 15 -6 45 11 45 27 0 4 -7 15 -16
23 -19 20 -28 20 -44 1z"/>
<path d="M3193 4030 c-35 -21 -63 -66 -63 -102 0 -36 37 -88 74 -103 33 -14
76 -10 76 6 0 14 -33 48 -42 43 -4 -3 -17 0 -28 6 -30 16 -26 63 6 89 52 41
112 19 100 -36 -4 -18 -1 -35 9 -48 15 -20 15 -20 31 0 11 14 14 33 11 65 -10
86 -97 127 -174 80z"/>
<path d="M7423 3960 c-25 -10 -57 -65 -49 -86 8 -21 -6 -17 -49 15 l-39 29
-17 -22 c-9 -11 -15 -24 -12 -29 9 -14 230 -177 241 -177 10 0 32 30 32 43 0
3 -27 24 -60 48 -47 34 -60 50 -60 70 0 62 44 60 125 -6 49 -41 60 -43 76 -13
10 19 8 25 -22 50 -86 72 -129 92 -166 78z"/>
<path d="M3376 3862 c-7 -11 16 -35 49 -52 34 -18 44 -47 21 -56 -10 -4 -29 6
-50 24 -49 42 -73 48 -105 25 -48 -36 -33 -115 24 -129 18 -5 24 -11 20 -23
-3 -10 3 -25 14 -35 17 -16 22 -16 34 -5 8 8 40 36 71 62 50 44 56 53 56 87 0
50 -54 110 -100 110 -16 0 -31 -3 -34 -8z m2 -118 c26 -18 29 -39 6 -48 -28
-11 -43 -6 -60 19 -27 42 8 61 54 29z"/>
<path d="M7206 3792 c-16 -18 -13 -52 4 -52 5 0 8 -12 7 -27 -2 -24 2 -28 24
-28 17 0 46 -16 79 -44 62 -52 93 -56 128 -15 23 26 23 28 6 41 -12 9 -21 10
-28 3 -17 -17 -30 -12 -76 29 -39 35 -44 42 -33 59 9 14 9 22 0 31 -14 14 -37
14 -37 1 0 -15 -21 -12 -40 5 -15 14 -19 13 -34 -3z"/>
<path d="M7112 3728 c-6 -6 -12 -17 -12 -23 0 -6 47 -57 105 -115 103 -102
104 -104 125 -85 11 10 20 21 20 25 0 10 -199 205 -213 208 -7 1 -18 -3 -25
-10z"/>
<path d="M3615 3665 c-33 -32 -31 -66 7 -135 18 -33 29 -64 25 -74 -17 -45
-105 9 -93 57 4 17 0 30 -15 43 -20 18 -21 18 -36 -1 -9 -13 -13 -32 -9 -54
15 -95 123 -153 190 -100 36 28 34 74 -5 144 -34 60 -33 85 4 85 30 0 57 -29
57 -62 0 -28 33 -64 49 -53 6 3 11 22 11 41 0 102 -121 174 -185 109z"/>
<path d="M4996 3635 c-10 -14 -16 -29 -13 -31 7 -8 39 35 35 47 -2 7 -12 0
-22 -16z"/>
<path d="M4998 3595 c-16 -18 -28 -42 -28 -54 0 -11 -3 -20 -7 -20 -19 3 -23
-2 -11 -15 18 -20 38 -1 38 35 0 23 6 30 27 35 25 7 26 8 8 16 -17 7 -15 8 7
5 23 -3 25 -2 15 15 -15 23 -17 23 -49 -17z"/>
<path d="M7095 3591 c-53 -22 -102 -108 -76 -134 13 -13 51 18 51 43 0 21 20
40 42 40 27 0 22 -27 -12 -70 -16 -21 -30 -50 -30 -64 0 -33 33 -66 66 -66 29
0 84 49 84 75 0 9 4 14 10 10 11 -7 50 16 50 30 -1 13 -103 120 -128 134 -24
13 -30 13 -57 2z m95 -145 c0 -27 -18 -46 -42 -46 -29 0 -32 26 -7 59 17 24
26 28 36 20 7 -6 13 -21 13 -33z"/>
<path d="M4929 3549 c-15 -15 -25 -30 -22 -33 3 -3 -2 -9 -13 -13 -23 -8 -54
-35 -54 -45 0 -5 7 -8 15 -8 8 0 15 6 15 14 0 8 13 20 29 27 17 8 27 18 24 26
-3 7 2 13 10 13 8 0 17 10 20 22 8 30 6 30 -24 -3z"/>
<path d="M5023 3559 c-13 -5 -23 -13 -23 -19 0 -14 11 -12 34 5 24 18 18 25
-11 14z"/>
<path d="M4890 3465 c-7 -9 -10 -18 -6 -22 3 -3 6 -1 6 5 0 7 6 12 14 12 8 0
18 5 21 10 10 16 -21 11 -35 -5z"/>
<path d="M3756 3439 c-73 -57 -74 -147 -2 -197 39 -27 76 -28 106 -4 l22 18
-24 16 c-16 11 -30 13 -39 7 -8 -5 -17 -9 -21 -9 -15 0 -38 33 -38 56 0 28 49
84 74 84 22 0 46 -28 46 -55 0 -30 38 -55 51 -34 11 18 11 32 -1 64 -27 71
-117 99 -174 54z"/>
<path d="M4824 3441 c3 -5 -7 -14 -23 -21 -16 -6 -38 -21 -48 -32 -14 -16 -3
-13 50 13 52 26 63 35 50 41 -25 10 -35 9 -29 -1z"/>
<path d="M6910 3437 c-48 -17 -83 -71 -76 -117 7 -43 33 -79 75 -104 28 -16
38 -17 72 -7 52 16 89 57 89 98 0 18 -4 33 -8 33 -16 0 -40 -25 -44 -45 -4
-26 -46 -47 -70 -34 -28 15 -22 25 37 70 30 23 55 47 55 55 0 14 -45 48 -75
57 -11 3 -36 0 -55 -6z m57 -62 c3 -9 -55 -55 -70 -55 -12 0 -8 45 5 58 15 15
60 12 65 -3z"/>
<path d="M3950 3303 c-40 -64 -73 -123 -74 -131 0 -7 8 -20 20 -28 19 -13 23
-10 62 51 44 69 65 85 91 68 28 -17 24 -51 -13 -112 -20 -32 -36 -62 -36 -66
0 -9 31 -34 42 -35 16 0 98 148 98 178 0 41 -33 72 -77 72 -40 0 -41 9 -8 58
23 34 24 38 8 50 -9 6 -22 12 -29 12 -6 0 -44 -52 -84 -117z"/>
<path d="M6703 3385 l-22 -16 29 -46 c17 -26 30 -52 30 -57 0 -11 -92 -66
-109 -66 -5 0 -21 21 -37 48 -15 26 -28 48 -30 50 -2 3 -42 -15 -52 -23 -4 -3
23 -52 84 -155 21 -36 43 -74 49 -85 13 -25 35 -29 58 -11 17 13 16 17 -12 64
-17 27 -31 52 -31 55 0 7 98 67 110 67 5 0 21 -22 37 -50 30 -53 38 -58 68
-36 18 13 15 20 -57 142 -41 70 -79 129 -84 131 -5 2 -19 -4 -31 -12z"/>
<path d="M6383 3217 l-22 -12 61 -138 c61 -137 72 -150 107 -128 12 8 12 15
-2 48 -39 94 -107 238 -114 240 -5 1 -18 -3 -30 -10z"/>
<path d="M4176 3185 c-53 -42 -73 -126 -40 -173 68 -98 214 -46 214 77 0 61
-40 102 -106 108 -34 2 -55 -1 -68 -12z m107 -56 c16 -26 -1 -87 -29 -105 -20
-14 -30 -15 -51 -5 -23 11 -25 16 -20 54 9 65 72 101 100 56z"/>
<path d="M4651 3097 c-5 -12 -25 -78 -46 -146 -29 -100 -34 -125 -23 -132 35
-23 46 -10 73 79 14 48 34 113 45 145 l18 58 -24 10 c-34 12 -33 12 -43 -14z"/>
<path d="M4401 3084 c-29 -20 -51 -72 -51 -118 0 -90 118 -139 188 -78 40 35
56 128 29 162 -39 50 -120 66 -166 34z m103 -50 c21 -21 20 -52 -4 -91 -22
-37 -49 -42 -75 -16 -33 33 4 123 50 123 8 0 21 -7 29 -16z"/>
<path d="M6264 3086 c-35 -16 -64 -51 -64 -79 0 -24 36 -14 68 20 25 27 55 27
60 1 2 -11 -9 -23 -30 -34 -18 -9 -41 -23 -50 -32 -22 -19 -23 -75 -2 -96 25
-25 81 -20 111 10 14 14 28 21 32 16 9 -14 51 4 51 21 0 30 -52 153 -72 170
-24 20 -61 21 -104 3z m96 -140 c0 -28 -18 -46 -47 -46 -32 0 -30 33 4 58 32
23 43 20 43 -12z"/>
<path d="M5949 3067 l-25 -12 39 -145 c22 -80 40 -146 41 -147 6 -8 56 13 56
24 0 10 6 12 21 8 85 -27 146 63 105 158 -31 75 -108 96 -151 43 l-22 -28 -13
51 c-6 28 -15 53 -19 55 -3 2 -18 -1 -32 -7z m175 -141 c17 -35 18 -42 5 -65
-41 -73 -128 16 -88 90 18 34 60 21 83 -25z"/>
<path d="M4854 3041 c-74 -32 -106 -173 -57 -247 33 -50 112 -72 173 -48 52
21 76 52 91 119 10 47 10 60 -5 97 -9 24 -29 52 -43 63 -30 21 -124 31 -159
16z m128 -68 c23 -20 24 -92 3 -133 -27 -53 -74 -64 -120 -28 -25 20 -27 25
-23 81 4 51 9 64 33 84 32 28 74 26 107 -4z"/>
<path d="M5160 3023 c-20 -8 -39 -34 -40 -55 0 -9 -9 -20 -20 -23 -24 -8 -27
-45 -4 -45 14 0 15 -12 9 -95 l-7 -95 29 0 30 0 9 88 c8 79 11 87 32 90 28 4
30 38 2 47 -29 9 -24 32 10 44 17 5 30 16 30 24 0 24 -43 34 -80 20z"/>
<path d="M5616 3012 c-2 -4 2 -71 9 -148 8 -76 15 -142 15 -146 0 -5 14 -8 30
-8 35 0 35 1 20 148 -18 161 -18 162 -45 162 -13 0 -26 -4 -29 -8z"/>
<path d="M5383 2990 c-45 -27 -63 -60 -70 -122 -13 -125 88 -207 201 -164 36
14 49 26 65 60 12 23 21 54 21 69 0 26 -1 27 -64 27 -55 0 -64 -3 -69 -19 -6
-25 0 -31 35 -31 18 0 28 -5 28 -14 0 -26 -30 -46 -70 -46 -54 0 -80 34 -80
104 0 55 19 88 58 100 25 8 71 -9 78 -29 4 -9 19 -15 40 -15 39 0 40 2 17 41
-34 57 -129 77 -190 39z"/>
<path d="M5784 2956 c-45 -20 -64 -52 -64 -108 0 -39 6 -54 31 -83 27 -30 37
-35 75 -35 23 0 54 5 68 11 28 13 56 64 56 103 0 42 -31 94 -66 111 -39 18
-59 18 -100 1z m76 -56 c14 -14 20 -33 20 -65 0 -38 -4 -47 -22 -54 -52 -20
-98 61 -64 113 20 31 39 33 66 6z"/>
</g>
</svg>
